<?xml version="1.0" encoding="UTF-8" standalone="no"?>
<svg
   xmlns:dc="http://purl.org/dc/elements/1.1/"
   xmlns:cc="http://creativecommons.org/ns#"
   xmlns:rdf="http://www.w3.org/1999/02/22-rdf-syntax-ns#"
   xmlns:svg="http://www.w3.org/2000/svg"
   xmlns="http://www.w3.org/2000/svg"
   xmlns:xlink="http://www.w3.org/1999/xlink"
   xmlns:sodipodi="http://sodipodi.sourceforge.net/DTD/sodipodi-0.dtd"
   xmlns:inkscape="http://www.inkscape.org/namespaces/inkscape"
   version="1.0"
   width="800"
   height="1045"
   viewBox="0 0 669.26981 811.87597"
   id="svg2"
   xml:space="preserve"
   sodipodi:docname="EMule_mascot.svg"
   inkscape:version="1.0.1 (3bc2e813f5, 2020-09-07)"
   inkscape:export-filename="C:\Users\Usuari\Desktop\Manual Configurar eMule\EMule_mascot.png"
   inkscape:export-xdpi="90"
   inkscape:export-ydpi="90"><metadata
   id="metadata96"><rdf:RDF><cc:Work
       rdf:about=""><dc:format>image/svg+xml</dc:format><dc:type
         rdf:resource="http://purl.org/dc/dcmitype/StillImage" /><dc:title /></cc:Work></rdf:RDF></metadata><sodipodi:namedview
   pagecolor="#ffffff"
   bordercolor="#666666"
   borderopacity="1"
   objecttolerance="10"
   gridtolerance="10"
   guidetolerance="10"
   inkscape:pageopacity="0"
   inkscape:pageshadow="2"
   inkscape:window-width="3840"
   inkscape:window-height="2066"
   id="namedview94"
   showgrid="false"
   units="px"
   inkscape:zoom="1.5420642"
   inkscape:cx="221.63755"
   inkscape:cy="469.43548"
   inkscape:window-x="-11"
   inkscape:window-y="-11"
   inkscape:window-maximized="1"
   inkscape:current-layer="svg2"
   inkscape:document-rotation="0" />
 <defs
   id="defs4"><linearGradient
     id="linearGradient10104"><stop
       style="stop-color:#b0b2af;stop-opacity:1"
       offset="0"
       id="stop10106" /><stop
       style="stop-color:#d4d6d3;stop-opacity:1"
       offset="1"
       id="stop10108" /></linearGradient><linearGradient
     id="linearGradient8154"><stop
       style="stop-color:#625e5c;stop-opacity:1"
       offset="0"
       id="stop8156" /><stop
       style="stop-color:#a6a8a5;stop-opacity:1"
       offset="1"
       id="stop8158" /></linearGradient><linearGradient
     id="linearGradient4241"><stop
       style="stop-color:#e1a56e;stop-opacity:1"
       offset="0"
       id="stop4243" /><stop
       style="stop-color:#a66a33;stop-opacity:1"
       offset="1"
       id="stop4245" /></linearGradient><linearGradient
     id="linearGradient3264"><stop
       style="stop-color:#ec7b74;stop-opacity:1"
       offset="0"
       id="stop3266" /><stop
       style="stop-color:#d63a45;stop-opacity:1"
       offset="1"
       id="stop3268" /></linearGradient><linearGradient
     x1="4.7428908"
     y1="6.0564399"
     x2="4.7428908"
     y2="5.0079598"
     id="linearGradient15108"
     xlink:href="#linearGradient8154"
     gradientUnits="userSpaceOnUse"
     gradientTransform="matrix(116.25157,0,0,116.25157,-0.4348338,-0.4283132)" /><linearGradient
     x1="5.3147106"
     y1="7.4951501"
     x2="5.3147106"
     y2="6.3150902"
     id="linearGradient15111"
     xlink:href="#linearGradient8154"
     gradientUnits="userSpaceOnUse"
     gradientTransform="matrix(116.25157,0,0,116.25157,-0.4348338,-0.4283132)" /><linearGradient
     x1="0.91182125"
     y1="6.1099501"
     x2="0.91182125"
     y2="5.0079598"
     id="linearGradient15114"
     xlink:href="#linearGradient8154"
     gradientUnits="userSpaceOnUse"
     gradientTransform="matrix(116.25157,0,0,116.25157,-0.4348338,-0.4283132)" /><linearGradient
     x1="0.56385255"
     y1="7.43191"
     x2="0.56385255"
     y2="6.24089"
     id="linearGradient15117"
     xlink:href="#linearGradient8154"
     gradientUnits="userSpaceOnUse"
     gradientTransform="matrix(116.25157,0,0,116.25157,-0.4348338,-0.4283132)" /><radialGradient
     cx="1.5118316"
     cy="1.5863022"
     r="0.77457374"
     fx="1.5118316"
     fy="1.5863022"
     id="radialGradient15120"
     xlink:href="#linearGradient4241"
     gradientUnits="userSpaceOnUse"
     gradientTransform="matrix(116.25156,128.93341,-23.78506,21.445567,44.308907,-10.684272)" /><radialGradient
     cx="3.3883746"
     cy="1.2456843"
     r="0.46976188"
     fx="3.3883746"
     fy="1.2456843"
     id="radialGradient15123"
     xlink:href="#linearGradient4241"
     gradientUnits="userSpaceOnUse"
     gradientTransform="matrix(56.431186,16.902757,-89.184694,297.75011,296.00926,-276.05045)" /><linearGradient
     x1="0.86579001"
     y1="5.5388651"
     x2="2.0256701"
     y2="5.5388651"
     id="linearGradient15126"
     xlink:href="#linearGradient4241"
     gradientUnits="userSpaceOnUse"
     gradientTransform="matrix(116.25157,0,0,116.25157,-0.4348338,-0.4283132)" /><linearGradient
     x1="0.45398"
     y1="6.77776"
     x2="2.1632199"
     y2="6.77776"
     id="linearGradient15129"
     xlink:href="#linearGradient4241"
     gradientUnits="userSpaceOnUse"
     gradientTransform="matrix(116.25157,0,0,116.25157,-0.4348338,-0.4283132)" /><linearGradient
     x1="5.3441901"
     y1="6.85675"
     x2="3.4426501"
     y2="6.85675"
     id="linearGradient15132"
     xlink:href="#linearGradient4241"
     gradientUnits="userSpaceOnUse"
     gradientTransform="matrix(116.25157,0,0,116.25157,-0.4348338,-0.4283132)" /><linearGradient
     x1="4.8165002"
     y1="5.4751501"
     x2="3.6824317"
     y2="5.4751501"
     id="linearGradient15135"
     xlink:href="#linearGradient4241"
     gradientUnits="userSpaceOnUse"
     gradientTransform="matrix(116.25157,0,0,116.25157,-0.4348338,-0.4283132)" /><radialGradient
     cx="3.7747288"
     cy="5.7653866"
     r="0.34648392"
     fx="3.7747288"
     fy="5.7653866"
     id="radialGradient15138"
     xlink:href="#linearGradient3264"
     gradientUnits="userSpaceOnUse"
     gradientTransform="matrix(79.193871,-30.312074,49.803498,130.11752,-153.79953,27.547534)" /><radialGradient
     cx="3.1514964"
     cy="6.1444077"
     r="1.1824991"
     fx="3.1514964"
     fy="6.1444077"
     id="radialGradient15141"
     xlink:href="#linearGradient4241"
     gradientUnits="userSpaceOnUse"
     gradientTransform="matrix(116.25157,0,0,82.513993,-0.4348338,214.29596)" /><linearGradient
     x1="2.7751212"
     y1="5.5686064"
     x2="2.7751212"
     y2="4.6131067"
     id="linearGradient15147"
     xlink:href="#linearGradient8154"
     gradientUnits="userSpaceOnUse"
     gradientTransform="matrix(116.25157,0,0,116.25157,-0.4348338,-0.4283132)" /><linearGradient
     x1="2.7847881"
     y1="5.56534"
     x2="2.7847881"
     y2="2.9390848"
     id="linearGradient15154"
     xlink:href="#linearGradient10104"
     gradientUnits="userSpaceOnUse"
     gradientTransform="matrix(116.25157,0,0,116.25157,-0.4348338,-0.4283132)" /><radialGradient
     cx="2.7847881"
     cy="3.8941741"
     r="1.2807455"
     fx="2.7847881"
     fy="3.8941741"
     id="radialGradient15157"
     xlink:href="#linearGradient4241"
     gradientUnits="userSpaceOnUse"
     gradientTransform="matrix(65.029071,-16.25233,40.210302,160.8901,-14.376943,-128.99928)" /><radialGradient
     cx="2.7847881"
     cy="3.8941741"
     r="1.2807455"
     fx="2.7847881"
     fy="3.8941741"
     id="radialGradient2314"
     xlink:href="#linearGradient4241"
     gradientUnits="userSpaceOnUse"
     gradientTransform="matrix(64.502082,-16.120623,39.884442,159.58626,-14.264178,-127.95757)" /><linearGradient
     x1="2.7847881"
     y1="5.56534"
     x2="2.7847881"
     y2="2.9390848"
     id="linearGradient2316"
     xlink:href="#linearGradient10104"
     gradientUnits="userSpaceOnUse"
     gradientTransform="matrix(115.30948,0,0,115.30948,-0.43505462,-0.42853017)" /><linearGradient
     x1="2.7751212"
     y1="5.5686064"
     x2="2.7751212"
     y2="4.6131067"
     id="linearGradient2318"
     xlink:href="#linearGradient8154"
     gradientUnits="userSpaceOnUse"
     gradientTransform="matrix(115.30948,0,0,115.30948,-0.43505462,-0.42853017)" /><radialGradient
     cx="3.1514964"
     cy="6.1444077"
     r="1.1824991"
     fx="3.1514964"
     fy="6.1444077"
     id="radialGradient2320"
     xlink:href="#linearGradient4241"
     gradientUnits="userSpaceOnUse"
     gradientTransform="matrix(115.30948,0,0,81.845308,-0.43505462,212.55564)" /><radialGradient
     cx="3.7747288"
     cy="5.7653866"
     r="0.34648392"
     fx="3.7747288"
     fy="5.7653866"
     id="radialGradient2322"
     xlink:href="#linearGradient3264"
     gradientUnits="userSpaceOnUse"
     gradientTransform="matrix(78.552092,-30.066428,49.399895,129.06306,-152.5569,27.320604)" /><linearGradient
     x1="4.8165002"
     y1="5.4751501"
     x2="3.6824317"
     y2="5.4751501"
     id="linearGradient2324"
     xlink:href="#linearGradient4241"
     gradientUnits="userSpaceOnUse"
     gradientTransform="matrix(115.30948,0,0,115.30948,-0.43505462,-0.42853017)" /><linearGradient
     x1="5.3441901"
     y1="6.85675"
     x2="3.4426501"
     y2="6.85675"
     id="linearGradient2326"
     xlink:href="#linearGradient4241"
     gradientUnits="userSpaceOnUse"
     gradientTransform="matrix(115.30948,0,0,115.30948,-0.43505462,-0.42853017)" /><linearGradient
     x1="0.45398"
     y1="6.77776"
     x2="2.1632199"
     y2="6.77776"
     id="linearGradient2328"
     xlink:href="#linearGradient4241"
     gradientUnits="userSpaceOnUse"
     gradientTransform="matrix(115.30948,0,0,115.30948,-0.43505462,-0.42853017)" /><linearGradient
     x1="0.86579001"
     y1="5.5388651"
     x2="2.0256701"
     y2="5.5388651"
     id="linearGradient2330"
     xlink:href="#linearGradient4241"
     gradientUnits="userSpaceOnUse"
     gradientTransform="matrix(115.30948,0,0,115.30948,-0.43505462,-0.42853017)" /><radialGradient
     cx="3.3883746"
     cy="1.2456843"
     r="0.46976188"
     fx="3.3883746"
     fy="1.2456843"
     id="radialGradient2332"
     xlink:href="#linearGradient4241"
     gradientUnits="userSpaceOnUse"
     gradientTransform="matrix(55.973873,16.765779,-88.46195,295.33717,293.60669,-273.81705)" /><radialGradient
     cx="1.5118316"
     cy="1.5863022"
     r="0.77457374"
     fx="1.5118316"
     fy="1.5863022"
     id="radialGradient2334"
     xlink:href="#linearGradient4241"
     gradientUnits="userSpaceOnUse"
     gradientTransform="matrix(115.30947,127.88855,-23.592308,21.271774,43.946087,-10.601376)" /><linearGradient
     x1="0.56385255"
     y1="7.43191"
     x2="0.56385255"
     y2="6.24089"
     id="linearGradient2336"
     xlink:href="#linearGradient8154"
     gradientUnits="userSpaceOnUse"
     gradientTransform="matrix(115.30948,0,0,115.30948,-0.43505462,-0.42853017)" /><linearGradient
     x1="0.91182125"
     y1="6.1099501"
     x2="0.91182125"
     y2="5.0079598"
     id="linearGradient2338"
     xlink:href="#linearGradient8154"
     gradientUnits="userSpaceOnUse"
     gradientTransform="matrix(115.30948,0,0,115.30948,-0.43505462,-0.42853017)" /><linearGradient
     x1="5.3147106"
     y1="7.4951501"
     x2="5.3147106"
     y2="6.3150902"
     id="linearGradient2340"
     xlink:href="#linearGradient8154"
     gradientUnits="userSpaceOnUse"
     gradientTransform="matrix(115.30948,0,0,115.30948,-0.43505462,-0.42853017)" /><linearGradient
     x1="4.7428908"
     y1="6.0564399"
     x2="4.7428908"
     y2="5.0079598"
     id="linearGradient2342"
     xlink:href="#linearGradient8154"
     gradientUnits="userSpaceOnUse"
     gradientTransform="matrix(115.30948,0,0,115.30948,-0.43505462,-0.42853017)" /></defs>
 <g
   id="g1017"
   transform="translate(2.6349228,-30.113052)"><path
     d="m 103.28352,711.21082 91.80939,-23.71916 -6.12293,23.82293 z M 54.44995,673.79289 c 1.522085,10.11265 13.871729,37.00281 23.096488,37.38333 l -59.937866,-0.0807 c -10.1357027,8.6713 -16.2009811,24.60707 -16.91589991,32.5173 -1.53361603,16.82365 -1.34912087,25.14899 9.39772191,32.63258 -12.5802635,11.9576 -11.2426735,61.20627 16.639157,89.0881 L 246.5786,823.93736 c 46.61962,21.73584 117.30433,25.59871 160.33782,8.60208 l 229.63883,39.56269 c 10.88521,-10.57388 39.82789,-45.1552 20.39824,-87.61214 10.03192,-14.35603 11.05818,-47.99181 -8.25615,-68.42464 l -163.95855,-0.93401 -8.1985,-29.64607 85.62881,20.81336 c 10.93134,-8.61361 49.19103,-51.31271 18.56482,-85.65187 19.34894,-19.53343 22.03565,-24.54939 2.50222,-54.96804 l -106.40758,-1.97179 c 6.89551,-22.38157 4.52013,-47.61128 -11.85381,-73.55591 -35.06562,-54.88731 -69.94674,-111.83866 -71.91853,-185.2216 l 18.74933,0.0346 -16.81212,-19.76404 34.20078,0.0576 -29.42698,-15.05943 27.25916,-19.53342 -41.11935,-0.21909 c 26.59037,-70.89226 30.29179,-140.85052 38.72092,-216.793341 6.71101,-60.479821 -37.49864,-29.2309526 -62.90132,13.963977 -25.4142,43.19493 -70.93839,96.225764 -74.8935,176.342784 l -41.99571,-39.62034 7.14919,48.79897 C 215.1683,186.33362 170.38209,151.84456 98.797974,111.64767 c -58.634868,-32.920858 -13.940916,70.29265 4.416346,98.27826 13.04151,19.89089 42.43389,57.13585 68.96661,86.3668 l -12.52261,23.20027 9.30547,-1.13004 -4.08196,12.26893 19.45271,3.55154 c 0,40.3929 12.4419,73.42907 8.87883,114.46771 -4.33564,49.90595 -35.51532,84.86777 -29.20789,127.26707 l -97.621,-0.55348 c -19.47577,20.95173 -19.337399,55.76365 -1.775766,59.63806 -12.038309,8.70586 -12.891599,20.6058 -10.158764,38.7901 z"
     style="fill:#ffffff;fill-opacity:1;stroke:none;stroke-width:0.00755825"
     id="_42184048" /><path
     d="m 384.47489,312.28616 c -8.20888,-82.61924 -189.71637,-78.19597 -189.71637,38.30811 0,37.28416 11.49751,66.09885 8.20888,103.97917 -5.47259,63.03969 -61.65944,95.36093 -4.56049,163.26553 28.83659,34.29419 117.76442,22.14634 155.05665,20.06616 71.51148,-3.98972 147.37819,-71.38464 100.33078,-145.02358 -32.37083,-50.66468 -67.49525,-112.86838 -69.31945,-180.59539 z"
     style="fill:none;stroke:#1f1a17;stroke-width:4.06696"
     id="path13" /><path
     d="m 335.22161,425.3863 c 9.59258,7.66923 55.75674,17.05312 55.86858,-0.91555 0.10955,-17.69425 -0.50044,-32.72137 -2.73629,-42.66912 -2.23584,-9.94776 -6.78827,-28.79739 -15.96344,-36.91403 -5.76547,-5.10014 -20.87217,-8.029 -29.41084,-5.46912 -8.53866,2.55986 -22.33659,42.04298 -22.35158,54.9565 -0.0207,16.87208 5.00097,23.34209 14.59357,31.01132 z"
     style="fill:none;stroke:#1f1a17;stroke-width:4.06696"
     id="path15" /><path
     d="m 246.39987,459.10164 c 23.24639,-11.33492 42.27245,-23.90135 37.80421,-58.30047 -1.74002,-13.40358 -18.81274,-36.07803 -29.60571,-43.26988 -27.25916,-18.1647 -45.54724,13.38627 -43.26988,39.6261 1.69159,19.50114 11.82499,73.27917 35.07138,61.94425 z"
     style="fill:none;stroke:#1f1a17;stroke-width:4.06696"
     id="path17" /><path
     d="m 258.60077,640.68869 c 8.43835,2.49185 13.24905,9.15096 25.54335,12.7221 31.22235,9.06679 60.62165,5.41147 84.43997,-2.69824"
     style="fill:none;stroke:#1f1a17;stroke-width:4.06696"
     id="path23" /><path
     d="m 367.19461,636.37843 c -0.15566,17.60429 6.42851,31.81158 14.54399,47.13159 13.7518,25.96309 60.90415,27.07352 64.75895,-6.38469 2.68556,-23.30865 -3.4489,-44.4518 -22.29393,-63.91719 m 21.2008,37.69813 c 11.35567,19.72253 62.24521,100.99381 -15.32462,158.47327 -50.61279,37.50556 -204.11623,24.10199 -222.55191,-37.39602 -20.50779,-68.4108 2.53104,-85.06726 25.616,-135.30183"
     style="fill:none;stroke:#1f1a17;stroke-width:4.06696"
     id="path25" /><path
     d="M 257.55375,263.56444 C 223.51901,210.79652 166.88246,162.49223 97.619512,122.10969 c -47.182333,-27.508221 8.037068,74.21549 22.807068,97.59218 14.76998,23.37669 57.1762,71.00757 80.69702,95.84524"
     style="fill:none;stroke:#1f1a17;stroke-width:4.06696"
     id="path27" /><path
     d="m 307.25098,256.03128 c -2.4042,-83.73659 -1.61087,-78.39776 18.24081,-117.87397 19.85168,-39.476193 37.94605,-70.836911 57.3584,-99.489009 15.13897,-22.344671 37.23111,-49.317863 30.55124,6.633754 -8.87307,74.323875 -20.48819,169.320435 -54.28885,226.307525"
     style="fill:none;stroke:#1f1a17;stroke-width:4.06696"
     id="path29" /><polyline
     transform="matrix(115.30948,0,0,115.30948,-0.43505462,-0.42853017)"
     class="fil1 str1"
     points="3.17115,2.26223 3.38424,2.25963 3.28167,2.36483 3.45525,2.38061 3.26063,2.43058 3.34742,2.48318 3.25348,2.48791 "
     id="polyline31"
     style="fill:none;stroke:#1f1a17;stroke-width:0.03527" /><polyline
     transform="matrix(115.30948,0,0,115.30948,-0.43505462,-0.42853017)"
     class="fil1 str1"
     points="2.55778,2.22466 2.55254,2.01962 2.48403,2.11975 2.3375,1.9677 2.34802,2.13602 2.21915,2.1255 2.33474,2.25913 "
     id="polyline33"
     style="fill:none;stroke:#1f1a17;stroke-width:0.03527" /><polyline
     transform="matrix(115.30948,0,0,115.30948,-0.43505462,-0.42853017)"
     class="fil1 str1"
     points="1.60432,2.58522 1.51694,2.69884 1.64055,2.6778 1.55376,2.78826 1.73077,2.78852 "
     id="polyline35"
     style="fill:none;stroke:#1f1a17;stroke-width:0.03527" /><path
     d="m 267.77248,641.30791 c -0.0438,-30.56855 4.42673,-60.90186 -7.90562,-85.56886 -12.36348,-24.72927 -26.04264,-46.1284 -43.45207,-69.35519"
     style="fill:none;stroke:#1f1a17;stroke-width:4.06696"
     id="path37" /><path
     d="m 408.23325,622.76383 c -13.05187,-23.31788 -21.36107,-55.84091 -21.36107,-85.86289 0,-23.27868 8.42912,-64.17087 19.03414,-87.93961"
     style="fill:none;stroke:#1f1a17;stroke-width:4.06696"
     id="path39" /><path
     d="m 268.4701,597.91234 c 1.08506,-35.38502 -60.25612,-40.30758 -60.25612,-87.14168 0,-55.9274 106.70047,-65.62954 153.74328,-65.62954 34.94569,0 64.41418,-1.58897 64.41418,39.49927 0,19.50574 -29.30822,48.11402 -38.0233,74.85775"
     style="fill:none;stroke:#1f1a17;stroke-width:4.06696"
     id="path41" /><path
     d="m 458.46552,576.33794 119.21847,1.27763 c 16.95972,26.16141 4.35063,30.28603 -12.45112,47.08778 34.94915,23.4205 14.70426,52.62839 -7.60235,73.23304 l -100.2662,-24.91492"
     style="fill:none;stroke:#1f1a17;stroke-width:4.06696"
     id="path43" /><path
     d="m 472.23001,728.33658 171.40178,-0.5754 c 19.31318,17.70347 1.96141,45.44924 -15.76973,51.25161 4.62276,2.33848 23.50123,8.52828 26.69991,21.8327 3.19869,13.30441 6.90934,38.83623 -17.93292,62.9878 L 396.53511,824.10226"
     style="fill:none;stroke:#1f1a17;stroke-width:4.06696"
     id="path45" /><path
     d="M 178.27388,585.89479 73.192352,585.22714 c -17.810701,17.81071 -4.946777,41.77201 11.105455,45.06756 -10.997064,7.40171 -17.853366,23.16683 -15.35115,38.63329 1.401011,8.65512 13.981273,35.17861 22.44153,35.17861 L 214.23545,673.79289"
     style="fill:none;stroke:#1f1a17;stroke-width:4.06696"
     id="path47" /><path
     d="m 199.80561,719.21214 -175.718952,-0.007 c -5.841578,6.63721 -10.850621,14.81034 -11.545937,22.48419 -1.479421,16.30129 13.236374,25.24701 23.653433,32.49191 -24.352208,8.22502 -29.3969983,55.34739 -2.3846,82.35979 L 249.00471,812.01437"
     style="fill:none;stroke:#1f1a17;stroke-width:4.06696"
     id="path49" /><path
     d="m 130.72025,585.59152 c -3.07646,17.18342 -18.23043,19.89203 -31.321514,22.42885 21.672414,8.13392 5.669764,16.62993 0.320561,20.69228 17.962913,0 26.359753,5.79315 9.848583,17.41981 13.05419,0.26751 32.35699,2.77549 35.26279,44.7862"
     style="fill:none;stroke:#1f1a17;stroke-width:0.878658"
     id="path51" /><path
     d="m 86.529046,719.20753 c 0,19.0007 -21.422194,21.79003 -34.615904,25.93079 12.492628,5.5141 21.899575,13.00922 3.643779,21.86268 -1.801134,0.8729 33.573506,3.61726 9.61681,21.56057 17.741516,0.96859 42.436189,26.75757 34.004765,54.45374"
     style="fill:none;stroke:#1f1a17;stroke-width:0.878658"
     id="path53" /><path
     d="m 580.26116,727.97336 c 0,16.73832 20.44091,19.38121 32.92085,24.26803 -24.17347,9.80246 -0.53619,21.66435 2.61869,24.38564 -14.28339,0 -34.19965,1.25688 -12.31045,15.42495 -29.95624,11.84575 -34.29534,27.73309 -35.54991,60.4141"
     style="fill:none;stroke:#1f1a17;stroke-width:0.878658"
     id="path55" /><path
     d="m 507.49743,685.47836 c -2.3823,-26.69991 9.77709,-47.53057 33.28983,-48.34811 -17.71844,-20.5666 1.74349,-15.89773 11.76849,-15.89773 -3.62187,-3.66799 -25.39691,-18.30537 2.39729,-20.55852 -13.10608,-3.27595 -30.86028,-10.65229 -31.22696,-23.63729"
     style="fill:none;stroke:#1f1a17;stroke-width:0.878658"
     id="path57" /><path
     d="m 320.62804,394.37498 c 0.015,-12.91352 13.81292,-52.39664 22.35158,-54.9565 8.53867,-2.55988 23.64537,0.36898 29.41084,5.46912 9.17517,8.11664 13.7276,26.96627 15.96344,36.91403 2.23585,9.94775 2.84584,24.97487 2.73629,42.66912 -0.11184,17.96867 -46.276,8.58478 -55.86858,0.91555 -9.5926,-7.66923 -14.61433,-14.13924 -14.59357,-31.01132 z m 41.32922,50.76614 c 16.80635,0 32.34431,-0.36783 43.94906,3.82136 12.52491,4.52013 20.46512,14.34911 20.46512,35.67791 0,19.50574 -29.30822,48.11402 -38.0233,74.85775 2.93232,22.97541 10.06651,45.72482 19.88511,63.26569 5.56139,-2.84353 10.91174,-6.0399 15.97037,-9.55569 14.38025,-9.99271 26.40933,-22.55568 34.2619,-36.8702 13.24675,-24.14696 14.60972,-53.2776 -4.67118,-83.45639 -32.37083,-50.66468 -67.49525,-112.86838 -69.31945,-180.59539 -0.98013,-9.86704 -4.43249,-18.49334 -9.75288,-25.83509 -4.15805,-5.73896 -9.45767,-10.69265 -15.60943,-14.84149 -14.0055,-9.44499 -32.42734,-14.7181 -51.8616,-15.5783 -4.21341,-0.18681 -8.47525,-0.16606 -12.74976,0.0646 -8.61593,0.46584 -17.28259,1.78384 -25.71863,3.97472 -3.7983,0.98704 -7.55046,2.15052 -11.22884,3.49387 -24.7604,9.03681 -46.21026,26.17871 -56.43015,51.98267 -0.71722,1.81266 -1.38025,3.66915 -1.98447,5.56714 -2.82624,8.87998 -4.38061,18.70088 -4.38061,29.48002 0,37.28416 11.49751,66.09885 8.20888,103.97917 -4.53973,52.2963 -43.98249,83.45293 -24.69352,131.32135 3.96203,9.83359 10.40206,20.37172 20.13303,31.94418 7.86526,9.35275 20.19876,15.25198 34.73698,18.84272 7.95059,1.96372 16.5596,3.23674 25.45688,4.007 3.02917,0.26176 6.09064,0.46586 9.17171,0.61922 -0.0207,-14.72157 1.00435,-29.38893 0.69762,-43.39557 -0.0277,-1.21767 -0.0646,-2.43073 -0.113,-3.63801 -3.05801,-32.14713 -60.14312,-38.32311 -60.14312,-83.50367 0,-9.3689 2.99459,-17.44056 8.20081,-24.3868 25.8743,-34.51904 106.37992,-41.24274 145.54247,-41.24274 z M 254.59837,357.53129 c 10.79297,7.19185 27.86569,29.8663 29.60571,43.26988 4.46824,34.39912 -14.55782,46.96555 -37.80421,58.30047 -23.24639,11.33492 -33.37979,-42.44311 -35.07138,-61.94425 -2.27736,-26.23983 16.01072,-57.7908 43.26988,-39.6261 z"
     style="fill:url(#radialGradient2314);fill-opacity:1;stroke:#1f1a17;stroke-width:0.878658"
     id="path59" /><path
     d="m 320.62804,394.37498 c 0.015,-12.91352 13.81292,-52.39664 22.35158,-54.9565 8.53867,-2.55988 23.64537,0.36898 29.41084,5.46912 9.17517,8.11664 13.7276,26.96627 15.96344,36.91403 2.23585,9.94775 2.84584,24.97487 2.73629,42.66912 -0.11184,17.96867 -46.276,8.58478 -55.86858,0.91555 -9.5926,-7.66923 -14.61433,-14.13924 -14.59357,-31.01132 z m 41.32922,50.76614 c 16.80635,0 32.34431,-0.36783 43.94906,3.82136 12.52491,4.52013 20.46512,14.34911 20.46512,35.67791 0,19.50574 -29.30822,48.11402 -38.0233,74.85775 2.93232,22.97541 10.06651,45.72482 19.88511,63.26569 5.56139,-2.84353 10.91174,-6.0399 15.97037,-9.55569 14.38025,-9.99271 26.40933,-22.55568 34.2619,-36.8702 13.24675,-24.14696 14.60972,-53.2776 -4.67118,-83.45639 -46.73065,-94.26683 -231.0978,-26.81885 -266.14148,13.04064 -1.80876,12.66679 -23.21399,40.16148 -9.37898,79.9726 3.48011,10.01429 10.40206,20.37172 20.13303,31.94418 7.86526,9.35275 20.19876,15.25198 34.73698,18.84272 7.95059,1.96372 16.5596,3.23674 25.45688,4.007 3.02917,0.26176 6.09064,0.46586 9.17171,0.61922 -0.0207,-14.72157 1.00435,-29.38893 0.69762,-43.39557 -0.0277,-1.21767 -0.0646,-2.43073 -0.113,-3.63801 -3.05801,-32.14713 -60.14312,-38.32311 -60.14312,-83.50367 0,-9.3689 2.99459,-17.44056 8.20081,-24.3868 25.8743,-34.51904 106.37992,-41.24274 145.54247,-41.24274 z M 254.59837,357.53129 c 10.79297,7.19185 27.86569,29.8663 29.60571,43.26988 4.46824,34.39912 -14.55782,46.96555 -37.80421,58.30047 -23.24639,11.33492 -33.37979,-42.44311 -35.07138,-61.94425 -2.27736,-26.23983 16.01072,-57.7908 43.26988,-39.6261 z"
     style="fill:url(#linearGradient2316);fill-opacity:1;stroke:#1f1a17;stroke-width:0.878658"
     id="path8164" /><circle
     cx="260.06406"
     cy="416.74274"
     r="14.575117"
     style="fill:#000000;stroke:#1f1a17;stroke-width:4.06697"
     id="circle19" /><path
     d="m 284.20408,400.80117 c -1.74002,-13.40358 -18.81274,-36.07803 -29.60571,-43.26988 -27.25916,-18.1647 -45.54724,13.38627 -43.26988,39.6261 1.69159,19.50114 11.82499,73.27917 35.07138,61.94425 23.24639,-11.33492 42.27245,-23.90135 37.80421,-58.30047 z m -24.14004,1.36642 c 8.0486,0 14.57512,6.52652 14.57512,14.57512 0,8.04859 -6.52652,14.57511 -14.57512,14.57511 -8.0486,0 -14.57512,-6.52652 -14.57512,-14.57511 0,-8.0486 6.52652,-14.57512 14.57512,-14.57512 z"
     style="fill:#ffffff;fill-opacity:1;stroke:#1f1a17;stroke-width:0.878658"
     id="path61" /><circle
     cx="341.13815"
     cy="403.534"
     r="14.575117"
     style="fill:#000000;stroke:#1f1a17;stroke-width:4.06697"
     id="circle21" /><path
     d="m 342.97962,339.41848 c -8.53866,2.55986 -22.33659,42.04298 -22.35158,54.9565 -0.0207,16.87208 5.00097,23.34209 14.59357,31.01132 9.59258,7.66923 55.75674,17.05312 55.86858,-0.91555 0.10955,-17.69425 -0.50044,-32.72137 -2.73629,-42.66912 -2.23584,-9.94776 -6.78827,-28.79739 -15.96344,-36.91403 -5.76547,-5.10014 -20.87217,-8.029 -29.41084,-5.46912 z m -1.84149,49.54041 c 8.0486,0 14.57512,6.52651 14.57512,14.57511 0,8.04861 -6.52652,14.57512 -14.57512,14.57512 -8.04859,0 -14.57511,-6.52651 -14.57511,-14.57512 0,-8.0486 6.52652,-14.57511 14.57511,-14.57511 z"
     style="fill:#ffffff;fill-opacity:1;stroke:#1f1a17;stroke-width:0.878658"
     id="path63" /><path
     d="m 361.95726,445.14112 c -39.16255,0 -119.66817,6.7237 -145.54247,41.24274 17.40943,23.22679 31.08859,44.62592 43.45207,69.35519 5.87617,11.75465 7.93791,24.795 8.49024,38.53528 0.11185,1.17731 0.15105,2.38805 0.113,3.63801 0.30673,14.00664 -0.71838,28.674 -0.69762,43.39557 31.99953,1.59127 66.02505,-2.30619 85.69108,-3.40278 4.56971,-0.25484 9.15788,-0.76912 13.73105,-1.5267 14.15655,-2.34655 28.16435,-7.03273 41.03864,-13.6146 -9.8186,-17.54087 -16.95279,-40.29028 -19.88511,-63.26569 -0.9663,-7.56776 -1.47596,-15.15858 -1.47596,-22.5972 0,-23.27868 8.42912,-64.17087 19.03414,-87.93961 -11.60475,-4.18804 -27.14271,-3.82021 -43.94906,-3.82021 z"
     style="fill:url(#linearGradient2318);fill-opacity:1;stroke:#1f1a17;stroke-width:0.878658"
     id="path65" /><path
     d="m 259.86686,555.73905 c -12.36348,-24.72927 -26.04264,-46.1284 -43.45207,-69.35519 -5.20622,6.94624 -8.20081,15.0179 -8.20081,24.3868 0,45.18056 57.08511,51.35654 60.14312,83.50367 -0.55233,-13.74028 -2.61407,-26.78063 -8.49024,-38.53528 z"
     style="fill:#5b5857;fill-opacity:1;stroke:#1f1a17;stroke-width:0.878658"
     id="path67" /><path
     d="m 405.90632,448.96133 c -10.60502,23.76874 -19.03414,64.66093 -19.03414,87.93961 0,7.43862 0.50966,15.02944 1.47596,22.5972 8.71508,-26.74373 38.0233,-55.35201 38.0233,-74.85775 0,-21.3288 -7.94021,-31.15778 -20.46512,-35.67906 z"
     style="fill:#5b5857;fill-opacity:1;stroke:#1f1a17;stroke-width:0.878658"
     id="path69" /><path
     d="m 353.46356,637.90513 c -19.66603,1.09659 -53.69155,4.99405 -85.69108,3.40278 -3.08107,-0.15336 -6.14254,-0.35746 -9.17171,-0.61922 8.43835,2.49185 13.24905,9.15096 25.54335,12.7221 31.22235,9.06679 60.62165,5.41147 84.43997,-2.69824 -0.93055,-4.57203 -1.43329,-9.3147 -1.38948,-14.33412 -4.57317,0.75758 -9.16134,1.27186 -13.73105,1.5267 z"
     style="fill:#a66a33;fill-opacity:1;stroke:#1f1a17;stroke-width:0.878658"
     id="path71" /><path
     d="m 368.58409,650.71255 c -23.81832,8.10971 -53.21762,11.76503 -84.43997,2.69824 -12.2943,-3.57114 -17.105,-10.23025 -25.54335,-12.7221 -8.89728,-0.77026 -17.50629,-2.04328 -25.45688,-4.007 -6.65336,14.47941 -13.30326,26.16833 -18.90844,37.1112 -7.58852,14.81727 -13.25944,28.26697 -14.42984,45.41925 -0.96283,14.13118 1.12889,30.77611 7.72228,52.77138 5.11628,17.06811 20.63809,30.43249 41.47682,40.03085 41.48489,19.10908 104.04143,23.29712 147.5304,12.08789 13.3736,-3.4466 24.9449,-8.34957 33.54469,-14.72272 33.5562,-24.86534 43.0727,-54.18162 42.15021,-81.04296 -0.72414,-21.05666 -7.86295,-40.60508 -14.86569,-55.31511 -4.715,-9.90277 -9.36775,-17.61236 -11.9599,-22.1152 1.84841,8.43143 2.13668,17.1615 1.09313,26.21906 -3.8548,33.45821 -51.00715,32.34778 -64.75895,6.38469 -5.80121,-10.95209 -10.82065,-21.3357 -13.15451,-32.79747 z"
     style="fill:url(#radialGradient2320);fill-opacity:1;stroke:#1f1a17;stroke-width:0.878658"
     id="path73" /><path
     d="m 368.58409,650.71255 c 2.33386,11.46177 7.3533,21.84538 13.15451,32.79747 13.7518,25.96309 60.90415,27.07352 64.75895,-6.38469 1.04355,-9.05756 0.75528,-17.78763 -1.09313,-26.21906 -2.90811,-13.26751 -9.67792,-25.79704 -21.2008,-37.69813 -5.05863,3.51579 -10.40898,6.71216 -15.97037,9.55569 -12.87429,6.58187 -26.88209,11.26805 -41.03864,13.6146 -0.0438,5.01942 0.45893,9.76209 1.38948,14.33412 z"
     style="fill:url(#radialGradient2322);fill-opacity:1;stroke:#1f1a17;stroke-width:0.878658"
     id="path75" /><path
     d="m 424.20362,613.20814 c 11.52288,11.90109 18.29269,24.43062 21.2008,37.69813 2.59215,4.50284 7.2449,12.21243 11.9599,22.1152 l 50.13311,12.45689 c -2.3823,-26.69991 9.77709,-47.53057 33.28983,-48.34811 -17.71844,-20.5666 1.74349,-15.89773 11.76849,-15.89773 -3.62187,-3.66799 -25.39691,-18.30537 2.39729,-20.55852 -13.10608,-3.27595 -30.86028,-10.65229 -31.22696,-23.63729 l -65.26056,-0.69877 c -7.85257,14.31452 -19.88165,26.87749 -34.2619,36.8702 z"
     style="fill:url(#linearGradient2324);fill-opacity:1;stroke:#1f1a17;stroke-width:0.878658"
     id="path77" /><path
     d="m 580.26116,727.97336 -108.03115,0.36322 c 0.92249,26.86134 -8.59401,56.17762 -42.15021,81.04296 -8.59979,6.37315 -20.17109,11.27612 -33.54469,14.72272 l 171.40523,28.36382 c 1.25457,-32.68101 5.59367,-48.56835 35.54991,-60.4141 -21.8892,-14.16807 -1.97294,-15.42495 12.31045,-15.42495 -3.15488,-2.72129 -26.79216,-14.58318 -2.61869,-24.38564 -12.47994,-4.88682 -32.92085,-7.52971 -32.92085,-24.26803 z"
     style="fill:url(#linearGradient2326);fill-opacity:1;stroke:#1f1a17;stroke-width:0.878658"
     id="path79" /><path
     d="m 249.00471,812.01437 c -20.83873,-9.59836 -36.36054,-22.96274 -41.47682,-40.03085 -6.59339,-21.99527 -8.68511,-38.6402 -7.72228,-52.77138 l -113.276564,-0.005 c 0,19.0007 -21.422194,21.79003 -34.615904,25.93079 12.492628,5.5141 21.899575,13.00923 3.643779,21.86268 -1.801134,0.8729 33.573506,3.61726 9.61681,21.56057 17.741516,0.9686 42.436189,26.75757 34.004765,54.45375 L 249.00471,812.01402 Z"
     style="fill:url(#linearGradient2328);fill-opacity:1;stroke:#1f1a17;stroke-width:0.878658"
     id="path81" /><path
     d="m 144.83067,690.91866 69.40478,-17.12577 c 5.60518,-10.94287 12.25508,-22.63179 18.90844,-37.1112 -14.53822,-3.59074 -26.87172,-9.48997 -34.73698,-18.84272 -9.73097,-11.57246 -16.171,-22.11059 -20.13303,-31.94418 l -47.55363,-0.30327 c -3.07646,17.18342 -18.23043,19.89203 -31.321514,22.42885 21.672414,8.13392 5.669764,16.62993 0.320561,20.69228 17.962913,0 26.359753,5.79315 9.848583,17.41981 13.05419,0.26751 32.35699,2.77549 35.26279,44.7862 z"
     style="fill:url(#linearGradient2330);fill-opacity:1;stroke:#1f1a17;stroke-width:0.878658"
     id="path83" /><path
     d="m 307.25098,256.03128 c 19.43426,0.8602 37.8561,6.13331 51.8616,15.5783 2.12399,-3.58151 4.16152,-7.31407 6.11601,-11.18155 29.13409,-57.66627 39.85787,-145.47329 48.17284,-215.125975 6.67987,-55.951617 -15.41227,-28.978425 -30.55124,-6.633754 -19.41235,28.652098 -37.50672,60.012816 -57.3584,99.489009 -19.85168,39.47621 -20.64501,34.13738 -18.24081,117.87397 z"
     style="fill:url(#radialGradient2332);fill-opacity:1;stroke:#1f1a17;stroke-width:0.878658"
     id="path85" /><path
     d="M 257.55375,263.56444 C 223.51901,210.79652 166.88246,162.49223 97.619512,122.10969 c -47.182333,-27.508221 8.037068,74.21549 22.807068,97.59218 11.72235,18.55214 40.85068,52.38164 64.13166,77.96996 6.05375,6.65336 11.71199,12.74977 16.56536,17.87528 10.21989,-25.80396 31.66975,-42.94586 56.43015,-51.98267 z"
     style="fill:url(#radialGradient2334);fill-opacity:1;stroke:#1f1a17;stroke-width:0.878658"
     id="path87" /><path
     d="M 65.173731,788.56157 C 89.130427,770.61826 53.755787,767.8739 55.556921,767.001 c 18.255796,-8.85346 8.848849,-16.34858 -3.643779,-21.86268 13.19371,-4.14076 34.615904,-6.93009 34.615904,-25.93079 l -62.442388,-0.002 c -5.841578,6.63722 -10.850621,14.81035 -11.545937,22.4842 -1.479421,16.30129 13.236374,25.247 23.653433,32.4919 -24.352208,8.22502 -29.3969983,55.3474 -2.3846,82.35979 L 99.178496,843.01531 C 107.60992,815.31914 82.915247,789.53016 65.173731,788.56157 Z"
     style="fill:url(#linearGradient2336);fill-opacity:1;stroke:#1f1a17;stroke-width:0.878658"
     id="path89" /><path
     d="m 91.388187,704.1066 53.442483,-13.18794 c -2.9058,-42.01071 -22.2086,-44.51869 -35.26279,-44.7862 16.51117,-11.62666 8.11433,-17.41981 -9.848583,-17.41981 5.349203,-4.06235 21.351853,-12.55836 -0.320561,-20.69228 13.091084,-2.53682 28.245054,-5.24543 31.321514,-22.42885 l -57.527898,-0.36438 c -17.810701,17.81071 -4.946777,41.77201 11.105455,45.06756 -10.997064,7.40171 -17.853366,23.16683 -15.35115,38.63329 1.401011,8.65512 13.981273,35.17861 22.44153,35.17861 z"
     style="fill:url(#linearGradient2338);fill-opacity:1;stroke:#1f1a17;stroke-width:0.878658"
     id="path91" /><path
     d="m 603.49025,792.05198 c -29.95624,11.84575 -34.29534,27.73309 -35.54991,60.4141 l 68.68871,11.36721 c 24.84226,-24.15157 21.13161,-49.68339 17.93292,-62.9878 -3.19868,-13.30442 -22.07715,-19.49422 -26.69991,-21.8327 17.73114,-5.80237 35.08291,-33.54814 15.76973,-51.25161 l -63.37063,0.21218 c 0,16.73832 20.44091,19.38121 32.92085,24.26803 -24.17347,9.80246 -0.53619,21.66435 2.61869,24.38564 -14.28339,0 -34.19965,1.25688 -12.31045,15.42495 z"
     style="fill:url(#linearGradient2340);fill-opacity:1;stroke:#1f1a17;stroke-width:0.878658"
     id="path93" /><path
     d="m 507.49743,685.47836 50.13309,12.45803 c 22.30661,-20.60465 42.5515,-49.81254 7.60235,-73.23304 16.80175,-16.80175 29.41084,-20.92637 12.45112,-47.08778 l -53.95791,-0.57886 c 0.36668,12.985 18.12088,20.36134 31.22696,23.63729 -27.7942,2.25315 -6.01916,16.89053 -2.39729,20.55852 -10.025,0 -29.48693,-4.66887 -11.76849,15.89773 -23.51274,0.81754 -35.67213,21.6482 -33.28983,48.34811 z"
     style="fill:url(#linearGradient2342);fill-opacity:1;stroke:#1f1a17;stroke-width:0.878658"
     id="path95" /><path
     d="m 268.78259,260.07057 c 8.43604,-2.19088 17.1027,-3.50888 25.71863,-3.97472 l -0.60423,-23.64305 -7.89984,11.54594 -16.89631,-17.53282 1.21306,19.4089 -14.85993,-1.21306 z"
     style="fill:#a66a33;fill-opacity:1;stroke:#1f1a17;stroke-width:0.878658"
     id="path97" /><path
     d="m 201.1236,315.54711 c -4.85337,-5.12551 -10.51161,-11.22192 -16.56536,-17.87528 l -10.07574,13.10147 14.2534,-2.42612 -10.0077,12.73709 20.41093,0.0299 c 0.60422,-1.89799 1.26725,-3.75448 1.98447,-5.56714 z"
     style="fill:#a66a33;fill-opacity:1;stroke:#1f1a17;stroke-width:0.878658"
     id="path99" /><path
     d="m 365.22859,260.42803 c -1.95449,3.86748 -3.99202,7.60004 -6.11601,11.18155 6.15176,4.14884 11.45138,9.10253 15.60943,14.84149 l 10.83218,-0.54542 -10.00771,-6.06527 22.44153,-5.76202 -20.01541,-1.81958 11.82729,-12.13056 z"
     style="fill:#a66a33;fill-opacity:1;stroke:#1f1a17;stroke-width:0.878658"
     id="path101" /></g>
</svg>
