<?xml version="1.0" encoding="UTF-8" standalone="no"?>
<svg
   xmlns:dc="http://purl.org/dc/elements/1.1/"
   xmlns:cc="http://creativecommons.org/ns#"
   xmlns:rdf="http://www.w3.org/1999/02/22-rdf-syntax-ns#"
   xmlns:svg="http://www.w3.org/2000/svg"
   xmlns="http://www.w3.org/2000/svg"
   xmlns:sodipodi="http://sodipodi.sourceforge.net/DTD/sodipodi-0.dtd"
   xmlns:inkscape="http://www.inkscape.org/namespaces/inkscape"
   aria-hidden="true"
   focusable="false"
   data-prefix="fas"
   data-icon="at"
   class="svg-inline--fa fa-at fa-w-16"
   role="img"
   viewBox="0 0 210 210"
   version="1.1"
   id="svg4"
   sodipodi:docname="Mail_icon.svg"
   width="210"
   height="210"
   inkscape:version="1.0.1 (3bc2e813f5, 2020-09-07)">
  <metadata
     id="metadata10">
    <rdf:RDF>
      <cc:Work
         rdf:about="">
        <dc:format>image/svg+xml</dc:format>
        <dc:type
           rdf:resource="http://purl.org/dc/dcmitype/StillImage" />
        <dc:title />
      </cc:Work>
    </rdf:RDF>
  </metadata>
  <defs
     id="defs8" />
  <sodipodi:namedview
     pagecolor="#ffffff"
     bordercolor="#666666"
     borderopacity="1"
     objecttolerance="10"
     gridtolerance="10"
     guidetolerance="10"
     inkscape:pageopacity="0"
     inkscape:pageshadow="2"
     inkscape:window-width="3840"
     inkscape:window-height="2066"
     id="namedview6"
     showgrid="false"
     inkscape:zoom="4.78125"
     inkscape:cx="165.36727"
     inkscape:cy="78.701198"
     inkscape:window-x="-11"
     inkscape:window-y="-11"
     inkscape:window-maximized="1"
     inkscape:current-layer="svg4"
     inkscape:document-rotation="0" />
  <path
     fill="currentColor"
     d="M 105,4.9999996 C 49.734274,4.9999996 5,49.725402 5,105 c 0,55.26573 44.725403,100 100,100 19.41694,0 38.44435,-5.70161 54.6,-16.21895 4.84073,-3.15121 5.89718,-9.79355 2.23871,-14.2629 l -4.10363,-5.01331 c -3.09314,-3.77863 -8.53992,-4.70444 -12.6504,-2.06815 -11.89113,7.62662 -25.84516,11.75686 -40.08468,11.75686 -40.910484,0 -74.193548,-33.28307 -74.193548,-74.19355 0,-40.910485 33.283064,-74.193549 74.193548,-74.193549 40.37863,0 74.19355,23.233467 74.19355,64.516129 0,15.63952 -8.50524,32.15403 -23.45565,33.74718 -6.99556,-0.18307 -6.81855,-5.18428 -5.43387,-12.10645 l 9.44879,-48.834682 c 1.15565,-5.971371 -3.41895,-11.515726 -9.5008,-11.515726 h -18.1375 a 5.4508065,5.4508065 0 0 0 -5.41613,4.835887 l -0.004,0.0371 c -5.9262,-7.218145 -16.30967,-8.780242 -24.18185,-8.780242 -30.072581,0 -55.577016,25.094355 -55.577016,61.072583 0,26.33185 14.832661,42.68951 38.709677,42.68951 10.880645,0 23.132659,-6.30524 30.238309,-15.45685 3.83951,13.75161 16.37621,13.75121 28.51209,13.75121 C 188.31008,154.7621 205,125.88629 205,95.32258 205,40.343951 160.65444,4.9999996 105,4.9999996 Z M 96.258065,127.75403 c -8.971371,0 -14.544355,-6.29959 -14.544355,-16.43992 0,-18.142337 12.410887,-29.326208 23.64113,-29.326208 8.98871,0 14.35524,6.145565 14.35524,16.439517 0,18.169761 -13.65927,29.326611 -23.452015,29.326611 z"
     id="path2-8"
     style="stroke-width:4;stroke:#ffffff;stroke-opacity:1;stroke-miterlimit:4;stroke-dasharray:none" />
</svg>
