<?xml version="1.0" standalone="no"?>
<!DOCTYPE svg PUBLIC "-//W3C//DTD SVG 20010904//EN"
 "http://www.w3.org/TR/2001/REC-SVG-20010904/DTD/svg10.dtd">
<svg version="1.0" xmlns="http://www.w3.org/2000/svg"
 width="1045.000000pt" height="1045.000000pt" viewBox="0 0 1045.000000 1045.000000"
 preserveAspectRatio="xMidYMid meet">
<metadata>
Created by potrace 1.11, written by Peter Selinger 2001-2013
</metadata>
<g transform="translate(0.000000,1045.000000) scale(0.100000,-0.100000)"
fill="#000000" stroke="none">
<path d="M6095 10415 c-30 -13 -80 -42 -111 -65 -57 -43 -206 -189 -236 -231
-9 -13 -24 -33 -33 -44 -36 -45 -124 -175 -119 -175 2 0 0 -6 -6 -12 -14 -17
-84 -129 -93 -148 -3 -8 -56 -91 -117 -183 -60 -93 -110 -173 -110 -178 0 -5
-4 -9 -8 -9 -5 0 -16 -15 -25 -32 -10 -18 -26 -46 -37 -63 -11 -16 -23 -37
-27 -45 -4 -8 -22 -38 -40 -67 -18 -29 -33 -57 -33 -63 0 -5 -4 -10 -10 -10
-5 0 -10 -9 -10 -20 0 -11 -3 -20 -7 -20 -5 0 -17 -19 -28 -43 -10 -23 -28
-55 -40 -72 -11 -16 -19 -30 -17 -30 3 0 -14 -40 -84 -192 -13 -29 -26 -64
-30 -78 -3 -14 -9 -25 -13 -25 -4 0 -8 -6 -8 -12 0 -7 -15 -56 -32 -108 -31
-90 -70 -227 -75 -260 -1 -9 -5 -21 -10 -28 -4 -6 -5 -12 -3 -12 3 0 1 -17 -4
-37 -5 -21 -12 -60 -15 -88 -3 -27 -8 -53 -10 -56 -4 -7 -15 -116 -18 -186 -2
-24 -5 -46 -9 -49 -3 -4 -39 25 -79 64 -77 74 -91 87 -268 252 -62 58 -119
111 -127 119 -22 21 -25 8 -14 -54 6 -32 8 -61 6 -65 -3 -5 -2 -11 3 -14 4 -2
9 -22 10 -44 2 -22 5 -50 8 -63 6 -29 15 -83 19 -124 2 -16 5 -39 8 -50 3 -11
7 -47 11 -80 l6 -60 -27 35 c-90 112 -224 260 -350 383 -124 121 -174 165
-328 289 -82 66 -159 128 -170 137 -11 9 -51 38 -90 64 -38 26 -112 77 -163
112 -51 36 -97 65 -102 65 -6 0 -10 5 -10 10 0 6 -4 10 -9 10 -5 0 -44 23 -85
50 -42 28 -80 50 -86 50 -5 0 -10 5 -10 10 0 6 -7 10 -15 10 -8 0 -15 5 -15
10 0 6 -5 10 -11 10 -6 0 -56 27 -110 60 -54 33 -123 73 -153 90 -85 45 -101
55 -106 61 -3 3 -36 19 -75 34 -167 67 -252 26 -259 -125 -3 -54 1 -90 19
-190 16 -88 97 -333 146 -438 16 -35 29 -66 29 -68 0 -3 11 -30 25 -60 14 -30
25 -59 25 -63 0 -5 3 -11 8 -13 4 -1 24 -37 45 -78 41 -82 45 -88 97 -170 44
-70 149 -219 172 -244 10 -11 18 -23 18 -27 0 -4 6 -14 13 -21 7 -7 46 -56 87
-108 74 -94 138 -174 208 -260 63 -77 284 -334 309 -359 l23 -24 -52 -96 c-28
-53 -62 -116 -75 -140 l-24 -43 55 6 56 7 -15 -40 c-8 -23 -12 -41 -9 -41 2 0
-2 -13 -11 -29 -17 -33 -13 -38 36 -45 70 -10 174 -29 178 -32 2 -2 5 -32 6
-66 3 -90 15 -238 22 -273 3 -16 7 -48 8 -70 2 -22 8 -67 14 -100 5 -33 13
-84 16 -114 4 -30 9 -63 11 -75 2 -12 6 -40 9 -63 3 -23 7 -57 10 -75 13 -95
18 -181 19 -360 1 -109 -1 -198 -4 -198 -3 0 -6 -10 -7 -22 -3 -138 -59 -329
-226 -784 -31 -83 -58 -161 -61 -175 -2 -13 -9 -37 -15 -52 -6 -15 -10 -31 -9
-35 1 -4 -4 -25 -10 -47 -20 -73 -26 -129 -26 -256 l0 -125 -580 2 -580 3 -28
-32 c-38 -42 -91 -139 -113 -207 -9 -30 -21 -62 -25 -70 -14 -30 -8 -233 9
-270 24 -55 68 -106 101 -120 l30 -12 -39 -40 c-67 -66 -90 -133 -94 -273 -1
-25 1 -45 5 -45 4 0 5 -6 2 -14 -5 -12 4 -70 20 -141 14 -62 85 -217 128 -279
12 -17 41 -51 65 -74 24 -24 43 -45 43 -45 0 -1 -155 -2 -345 -1 l-345 1 -35
-35 c-19 -19 -37 -43 -40 -53 -4 -11 -10 -19 -14 -19 -12 0 -86 -167 -100
-225 -7 -27 -14 -95 -16 -151 -6 -132 10 -189 71 -254 43 -46 43 -47 25 -67
-17 -18 -33 -52 -29 -63 1 -3 -4 -15 -11 -27 -6 -13 -15 -42 -19 -65 -11 -66
-6 -277 7 -338 7 -30 15 -66 17 -80 11 -59 72 -209 116 -285 13 -22 25 -42 28
-45 3 -3 16 -21 30 -40 13 -19 37 -49 52 -66 l28 -31 73 14 c39 7 86 16 102
19 17 3 48 9 70 14 22 5 56 11 75 14 19 3 46 8 60 11 14 3 36 7 50 10 14 3 36
7 50 10 14 3 42 7 62 10 21 2 41 6 46 8 4 3 28 8 52 12 25 3 52 8 60 10 8 2
31 7 50 10 19 3 60 10 90 17 30 6 64 12 75 14 11 2 31 5 45 8 14 3 51 10 82
16 32 6 69 12 83 15 14 3 37 7 53 10 15 3 72 14 127 25 55 11 116 22 135 24
19 3 46 8 60 11 14 3 36 7 50 10 14 3 36 7 50 10 14 3 41 8 60 11 19 3 44 8
55 11 11 3 31 7 45 9 14 1 50 7 80 13 30 7 71 14 90 17 19 3 51 9 70 14 19 5
51 11 70 14 19 3 46 8 60 11 53 11 96 19 115 21 11 1 20 3 20 4 0 1 9 3 20 5
11 1 38 6 60 10 22 4 49 9 60 11 11 1 20 3 20 4 0 1 11 3 25 5 14 2 60 10 102
19 l77 15 81 -34 c81 -35 274 -98 298 -98 6 0 12 -4 12 -9 0 -5 4 -7 8 -4 5 3
26 1 47 -5 45 -13 72 -19 105 -24 14 -2 37 -6 52 -9 116 -19 152 -24 228 -32
86 -10 528 -10 600 0 36 4 78 9 93 11 16 2 40 6 55 9 15 3 40 8 56 10 43 8
217 56 246 68 14 6 32 11 40 10 52 -6 99 -14 310 -50 129 -23 251 -44 270 -47
19 -4 44 -8 55 -10 11 -1 35 -6 53 -9 39 -7 74 -13 127 -21 38 -5 52 -8 103
-19 11 -2 43 -7 73 -11 30 -4 58 -9 62 -12 5 -3 26 -6 47 -8 22 -2 52 -6 67
-9 62 -14 118 -24 164 -30 19 -3 43 -7 54 -9 11 -3 36 -7 55 -10 19 -4 51 -9
70 -13 19 -3 44 -7 55 -9 84 -13 103 -16 125 -21 14 -3 41 -8 60 -10 19 -3 44
-6 55 -8 11 -2 38 -7 60 -11 70 -13 79 -15 110 -20 17 -3 44 -8 60 -11 17 -3
46 -8 65 -11 19 -3 69 -11 110 -19 41 -8 89 -16 105 -19 17 -2 41 -6 55 -9 14
-2 43 -7 65 -10 22 -3 51 -8 65 -11 26 -5 135 -24 185 -31 17 -3 35 -7 42 -9
16 -5 102 90 161 177 116 173 174 348 172 523 -2 116 -16 194 -55 296 -18 46
-18 46 8 101 14 30 29 68 32 84 3 16 8 40 11 54 11 57 11 213 -1 269 -7 34
-10 61 -8 61 3 0 1 6 -5 13 -6 6 -10 14 -10 17 4 28 -57 154 -103 215 l-40 53
-302 2 c-166 1 -605 3 -975 5 -371 1 -678 7 -682 11 -7 7 -48 143 -66 214 -2
8 -10 40 -18 70 -8 30 -13 56 -11 58 2 3 24 -1 47 -7 24 -6 52 -14 63 -16 11
-2 35 -8 53 -14 18 -5 36 -10 40 -11 4 0 16 -3 27 -5 11 -3 29 -7 40 -9 11 -1
27 -6 35 -9 16 -5 180 -46 215 -52 11 -2 38 -9 60 -15 22 -6 53 -13 68 -15 16
-2 43 -9 60 -14 48 -16 285 -71 303 -71 20 0 186 170 167 170 -5 0 -3 4 3 8
15 10 88 121 105 159 8 18 17 33 21 33 5 0 7 3 6 7 0 5 2 16 5 26 16 41 20 53
23 62 33 120 36 135 31 225 -3 63 -12 114 -26 151 -21 55 -78 151 -93 157 -18
8 -5 31 56 95 35 37 75 92 90 121 29 57 38 136 19 171 -6 11 -11 22 -11 25 0
3 -7 22 -16 44 -9 21 -16 40 -16 42 0 9 -102 174 -108 176 -15 3 -140 6 -435
11 -170 3 -311 7 -314 10 -2 3 -17 1 -33 -3 -16 -4 -31 -6 -34 -3 -3 3 -94 7
-203 9 -109 1 -210 3 -225 3 -20 1 -26 5 -23 18 3 10 9 36 15 58 23 94 29 205
17 324 -19 173 -90 347 -232 566 -114 177 -125 195 -125 205 0 5 -4 10 -10 10
-5 0 -10 4 -10 9 0 5 -31 60 -68 123 -86 142 -267 478 -282 523 -3 10 -22 54
-60 140 -10 22 -21 51 -25 65 -4 14 -11 30 -15 35 -6 8 -63 170 -77 220 -31
109 -55 207 -88 355 -1 8 -6 38 -9 65 -4 28 -9 57 -11 65 -7 26 -17 152 -19
234 l-1 79 107 0 108 -1 -19 27 c-11 14 -34 42 -53 63 -41 45 -101 117 -110
133 -6 10 34 13 182 12 105 0 192 2 195 4 2 3 -70 42 -161 88 -90 46 -164 86
-164 90 0 4 70 56 155 116 85 60 153 111 151 112 -1 2 -110 4 -240 5 -236 1
-238 1 -233 22 3 12 22 68 42 126 20 58 38 112 41 120 2 8 18 62 34 120 17 58
33 113 36 123 2 9 6 25 9 35 13 53 74 333 79 366 4 21 8 41 10 45 2 3 7 26 10
51 7 51 14 85 16 85 1 0 3 14 4 30 2 17 6 50 10 75 4 25 9 56 11 70 2 14 7 45
11 70 4 25 8 56 9 70 2 14 5 39 8 55 3 17 8 57 12 90 3 33 8 72 11 88 2 15 6
51 9 80 3 28 7 70 10 92 2 22 7 65 10 95 3 30 8 73 10 95 9 76 14 130 20 190
3 33 8 76 10 95 2 19 7 64 10 100 4 36 9 79 11 95 16 123 22 311 11 355 -15
59 -22 78 -39 103 -40 56 -106 67 -193 32z m-2520 -8227 c-3 -17 -8 -34 -10
-38 -2 -3 -6 -17 -9 -31 -2 -13 -14 -59 -25 -101 -12 -43 -21 -79 -21 -80 0
-2 -227 -3 -504 -3 -277 0 -502 2 -499 5 2 3 9 6 14 6 5 1 10 2 12 4 2 2 8 3
57 13 14 3 68 17 120 31 52 13 185 48 295 76 110 28 221 57 248 65 26 8 47 12
47 9 0 -3 8 0 19 5 10 6 31 13 47 16 16 3 67 16 114 29 47 13 88 24 93 25 4 0
5 -13 2 -31z"/>
</g>
</svg>
